# AST/ASF file generated using VICON BodyLanguage
# -----------------------------------------------
:version 1.10
:name VICON
:units
  mass 1.0
  length 0.45
  angle deg
:documentation
   .ast/.asf automatically generated from VICON data using
   VICON BodyBuilder and BodyLanguage model FoxedUp or BRILLIANT.MOD
:root
   order TX TY TZ RX RY RZ
   axis XYZ
   position 0 0 0  
   orientation 0 0 0 
:bonedata
  begin
     id 1 
     name lhipjoint
     direction 0.722297 -0.617336 0.311742 
     length 2.6635 
     axis 0 0 0  XYZ
  end
  begin
     id 2 
     name lfemur
     direction 0.34202 -0.939693 0  
     length 7.39349  
     axis 0 0 20  XYZ
    dof rx ry rz
    limits (-160.0 20.0)
           (-70.0 70.0)
           (-60.0 70.0)
  end
  begin
     id 3 
     name ltibia
     direction 0.34202 -0.939693 0   
     length 7.36294   
     axis 0 0 20   XYZ
    dof rx
    limits (-10.0 170.0)
  end
  begin
     id 4 
     name lfoot
     direction 0.104879 -0.288152 0.951824   
     length 2.16981   
     axis -90 7.62852e-016 20   XYZ
    dof rx rz
    limits (-45.0 90.0)
           (-70.0 20.0)
  end
  begin
     id 5 
     name ltoes
     direction 1.53586e-011 -4.21895e-011 1   
     length 1.08218   
     axis -90 7.62852e-016 20   XYZ
    dof rx
    limits (-90.0 20.0)
  end
  begin
     id 6 
     name rhipjoint
     direction -0.75102 -0.589393 0.297631   
     length 2.78977  
     axis 0 0 0  XYZ 
  end
  begin
     id 7 
     name rfemur
     direction -0.34202 -0.939693 0   
     length 7.46076   
     axis 0 0 -20   XYZ
    dof rx ry rz
    limits (-160.0 20.0)
           (-70.0 70.0)
           (-70.0 60.0)
  end
  begin
     id 8 
     name rtibia
     direction -0.34202 -0.939693 0   
     length 7.31726   
     axis 0 0 -20   XYZ
    dof rx
    limits (-10.0 170.0)
 end
 begin
     id 9 
     name rfoot
     direction -0.107991 -0.296704 0.948844   
     length 2.09388  
     axis -90 -7.62852e-016 -20   XYZ
    dof rx rz
    limits (-45.0 90.0)
           (-20.0 70.0)
  end
  begin
     id 10 
     name rtoes
     direction -1.53559e-011 -4.21911e-011 1   
     length 1.04433   
     axis -90 -7.62852e-016 -20   XYZ
    dof rx
    limits (-90.0 20.0)
  end
  begin
     id 11 
     name lowerback
     direction 0.0165164 0.98272 0.184358   
     length 1.71896   
     axis 0 0 0   XYZ
    dof rx ry rz
    limits (-20.0 45.0)
           (-30.0 30.0)
           (-30.0 30.0)
  end
  begin
     id 12 
     name upperback
     direction -0.00887249 0.992297 0.123566   
     length 1.71504   
     axis 0 0 0   XYZ
    dof rx ry rz
    limits (-20.0 45.0)
           (-30.0 30.0)
           (-30.0 30.0)
  end
  begin
     id 13 
     name thorax
     direction -0.0157026 0.998908 0.0440032   
     length 1.77022   
     axis 0 0 0   XYZ
    dof rx ry rz
    limits (-20.0 45.0)
           (-30.0 30.0)
           (-30.0 30.0)
  end
  begin
     id 14 
     name lowerneck
     direction -0.0238856 0.998137 0.0561411   
     length 1.89341   
     axis 0 0 0   XYZ
    dof rx ry rz
    limits (-20.0 45.0)
           (-30.0 30.0)
           (-30.0 30.0)
  end
  begin
     id 15 
     name upperneck
     direction 0.0276574 0.952253 -0.304056   
     length 1.86999   
     axis 0 0 0   XYZ
    dof rx ry rz
    limits (-20.0 45.0)
           (-30.0 30.0)
           (-30.0 30.0)
  end
  begin
     id 16
     name head
     direction 0.00800083 0.994258 -0.106712  
     length 1.91492  
     axis 0 0 0   XYZ
    dof rx ry rz
    limits (-20.0 45.0)
           (-30.0 30.0)
           (-30.0 30.0)
  end
  begin
     id 17 
     name lclavicle
     direction 0.97203 0.225407 0.06595  
     length 3.34889  
     axis 0 0 0   XYZ
    dof ry rz
    limits (-20.0 10.0)
           (0.0 20.0)
  end
  begin
     id 18 
     name lhumerus
     direction 1 -4.48973e-011 2.20267e-027   
     length 4.85645   
     axis 180 -30 -90   XYZ
    dof rx ry rz
    limits (-60.0 90.0)
           (-90.0 90.0)
           (-90.0 90.0)
  end
  begin
     id 19
     name lradius
     direction 1 -4.4897e-011 4.60472e-027   
     length 2.79874   
     axis 180 -30 -90   XYZ
    dof rx
    limits (-10.0 170.0)
  end
  begin
     id 20
     name lwrist
     direction 1 -4.48952e-011 1.14928e-026   
     length 1.39937   
     axis -6.29373e-015 90 90   XYZ
    dof ry
    limits (-180.0 0.0)
 end
  begin
     id 21 
     name lhand
     direction 1 -4.48967e-011 2.29886e-026   
     length 0.573398   
     axis -1.46689e-014 90 90   XYZ
    dof rx rz
    limits (-90.0 90.0)
           (-45.0 45.0)
  end
  begin
     id 22 
     name lfingers
     direction 1 -4.48955e-011 4.59726e-026   
     length 0.462289   
     axis -2.93383e-014 90 90   XYZ
    dof rx
    limits (0.0 90.0)
  end
  begin
     id 23
     name lthumb
     direction 0.707107 -6.34866e-011 0.707107   
     length 0.663757   
     axis -90 45 5.69224e-014   XYZ
    dof rx rz
    limits (-45.0 45.0)
           (-45.0 45.0)
  end
  begin
     id 24 
     name rclavicle
     direction -0.981571 0.157346 0.108443   
     length 3.35257  
     axis 0 0 0   XYZ 
    dof ry rz
    limits (-10.0 20.0)
           (-20.0 0.0)
  end
  begin
     id 25 
     name rhumerus
     direction -1 -4.48967e-011 8.58308e-029  
     length 4.67018   
     axis 180 30 90   XYZ
    dof rx ry rz
    limits (-90.0 60.0)
           (-90.0 90.0)
           (-90.0 90.0)
  end
  begin
     id 26 
     name rradius
     direction -1 -4.48958e-011 4.52548e-027   
     length 2.65534   
     axis 180 30 90   XYZ
    dof rx
    limits (-10.0 170.0)
  end
  begin
     id 27 
     name rwrist
     direction -1 -4.48977e-011 1.14952e-026   
     length 1.32767   
     axis -6.29373e-015 -90 -90   XYZ
    dof ry
    limits (-180.0 0.0)
  end
  begin
     id 28
     name rhand
     direction -1 -4.48924e-011 2.29804e-026   
     length 0.594069   
     axis -1.46689e-014 -90 -90   XYZ
    dof rx rz
    limits (-90.0 90.0)
           (-45.0 45.0)
  end
  begin
     id 29
     name rfingers
     direction -1 -4.48998e-011 4.59888e-026   
     length 0.478954   
     axis -2.93383e-014 -90 -90   XYZ
    dof rx
    limits (0.0 90.0)
  end
  begin
     id 30
     name rthumb
     direction -0.707107 -6.34933e-011 0.707107   
     length 0.687685   
     axis -90 -45 -5.69224e-014   XYZ
    dof rx rz
    limits (-45.0 45.0)
           (-45.0 45.0)
  end
:hierarchy
  begin
    root lhipjoint rhipjoint lowerback
    lhipjoint lfemur
    lfemur ltibia
    ltibia lfoot
    lfoot ltoes
    rhipjoint rfemur
    rfemur rtibia
    rtibia rfoot
    rfoot rtoes
    lowerback upperback
    upperback thorax
    thorax lowerneck lclavicle rclavicle
    lowerneck upperneck
    upperneck head
    lclavicle lhumerus
    lhumerus lradius
    lradius lwrist
    lwrist lhand lthumb
    lhand lfingers
    rclavicle rhumerus
    rhumerus rradius
    rradius rwrist
    rwrist rhand rthumb
    rhand rfingers
  end

#!OML:ASF E:\pregnant2\Project 1\Capture day 1\Session 1\pregnant2.ASF
:FULLY-SPECIFIED
:DEGREES
143
root 4.09749 16.9088 39.7535 -147.979 -27.2645 175.849
lowerback -17.8494 7.49303 1.65573
upperback -16.5611 6.53794 -7.23611
thorax -7.09448 1.37106 -7.8506
lowerneck -2.44739 16.3609 24.7935
upperneck 29.2871 20.6598 -6.11008
head 13.8118 10.8336 -3.20309
rclavicle 2.06736e-014 -7.95139e-014
rhumerus -59.8588 5.35936 -97.2335
rradius 93.2983
rwrist -14.5748
rhand -5.83261 -11.8756
rfingers 7.12502
rthumb 19.9933 -40.867
lclavicle 2.06736e-014 -7.95139e-014
lhumerus -60.3813 -24.957 96.1058
lradius 111.671
lwrist 16.4725
lhand 11.2631 25.703
lfingers 7.12502
lthumb 36.3233 51.9395
rfemur -42.735 9.33757 17.4398
rtibia 32.9019
rfoot -29.5935 -32.9595
rtoes 18.7767
lfemur -47.2985 -20.6006 -11.1714
ltibia 26.0404
lfoot -11.9628 -0.269808
ltoes -20.7672
144
root 4.09783 16.9087 39.7546 -147.995 -27.2395 175.856
lowerback -17.8235 7.49452 1.64664
upperback -16.5624 6.54142 -7.24072
thorax -7.10942 1.37316 -7.85233
lowerneck -2.47406 16.3305 24.7222
upperneck 29.1705 20.591 -6.01242
head 13.73 10.8083 -3.17197
rclavicle 4.69132e-014 2.94201e-014
rhumerus -59.8933 5.35833 -97.2699
rradius 93.311
rwrist -14.6327
rhand -5.81629 -12.0209
rfingers 7.12502
rthumb 20.0089 -41.0106
lclavicle 4.69132e-014 2.94201e-014
lhumerus -60.4654 -25.0282 96.1822
lradius 111.681
lwrist 16.3529
lhand 11.0903 25.6547
lfingers 7.12502
lthumb 36.1597 51.9319
rfemur -42.7207 9.35319 17.4401
rtibia 32.8932
rfoot -29.5829 -32.9585
rtoes 18.7782
lfemur -47.2843 -20.6017 -11.1699
ltibia 26.0425
lfoot -11.9672 -0.245067
ltoes -20.7841
145
root 4.09893 16.9086 39.7558 -147.988 -27.1937 175.873
lowerback -17.8237 7.49108 1.61723
upperback -16.575 6.53503 -7.23082
thorax -7.12946 1.37018 -7.82656
lowerneck -2.53218 16.2974 24.6276
upperneck 29.1047 20.5057 -5.89192
head 13.668 10.7739 -3.13009
rclavicle -2.44505e-014 3.4191e-014
rhumerus -59.9187 5.38061 -97.3032
rradius 93.3061
rwrist -14.6309
rhand -5.75539 -12.1081
rfingers 7.12502
rthumb 20.0675 -41.0918
lclavicle -2.44505e-014 3.4191e-014
lhumerus -60.5327 -25.0585 96.2662
lradius 111.659
lwrist 16.2383
lhand 10.9342 25.615
lfingers 7.12502
lthumb 36.0118 51.9286
rfemur -42.749 9.3659 17.443
rtibia 32.8845
rfoot -29.5287 -32.9387
rtoes 18.7665
lfemur -47.3083 -20.6062 -11.1324
ltibia 26.0408
lfoot -11.9472 -0.191044
ltoes -20.7562
146
root 4.09883 16.909 39.7565 -148.002 -27.167 175.877
lowerback -17.8088 7.48634 1.6025
upperback -16.5742 6.53043 -7.23096
thorax -7.13856 1.36901 -7.8203
lowerneck -2.52724 16.2414 24.5729
upperneck 28.952 20.419 -5.84346
head 13.5706 10.7383 -3.12739
rclavicle -6.87795e-014 -6.99722e-014
rhumerus -59.9529 5.41455 -97.3402
rradius 93.302
rwrist -14.5876
rhand -5.90928 -12.1641
rfingers 7.12502
rthumb 19.9196 -41.1632
lclavicle -6.87795e-014 -6.99722e-014
lhumerus -60.5831 -25.1132 96.3531
lradius 111.63
lwrist 16.1295
lhand 10.8473 25.6308
lfingers 7.12502
lthumb 35.9295 51.9646
rfemur -42.7356 9.3976 17.4273
rtibia 32.8726
rfoot -29.5307 -32.9501
rtoes 18.7467
lfemur -47.2906 -20.6115 -11.1334
ltibia 26.0392
lfoot -11.9615 -0.160271
ltoes -20.7678
147
root 4.09925 16.9094 39.7577 -147.993 -27.1393 175.878
lowerback -17.8131 7.48036 1.57381
upperback -16.5763 6.52338 -7.23054
thorax -7.14315 1.36701 -7.80456
lowerneck -2.60431 16.1758 24.4901
upperneck 28.8711 20.2966 -5.7745
head 13.5081 10.6833 -3.11379
rclavicle -2.38542e-015 -5.32743e-014
rhumerus -59.9822 5.43038 -97.3691
rradius 93.3055
rwrist -14.6035
rhand -5.9669 -12.1975
rfingers 7.12502
rthumb 19.8642 -41.2024
lclavicle -2.38542e-015 -5.32743e-014
lhumerus -60.6284 -25.1791 96.4468
lradius 111.587
lwrist 16.0533
lhand 10.738 25.6036
lfingers 7.12502
lthumb 35.826 51.9626
rfemur -42.7523 9.39793 17.4226
rtibia 32.8652
rfoot -29.4796 -32.9559
rtoes 18.6493
lfemur -47.2996 -20.5924 -11.1389
ltibia 26.0361
lfoot -11.9618 -0.142795
ltoes -20.7606
148
root 4.09959 16.9094 39.7587 -147.998 -27.1163 175.891
lowerback -17.8165 7.45976 1.54515
upperback -16.5718 6.49989 -7.20605
thorax -7.14541 1.35944 -7.76415
lowerneck -2.70845 16.1144 24.3997
upperneck 28.8334 20.1813 -5.72694
head 13.4728 10.6271 -3.10314
rclavicle 8.44835e-014 -6.83819e-014
rhumerus -59.9746 5.49639 -97.3783
rradius 93.273
rwrist -14.6299
rhand -5.94955 -12.2898
rfingers 7.12502
rthumb 19.8809 -41.293
lclavicle 8.44835e-014 -6.83819e-014
lhumerus -60.674 -25.1969 96.5397
lradius 111.54
lwrist 15.964
lhand 10.6727 25.5881
lfingers 7.12502
lthumb 35.7641 51.9623
rfemur -42.759 9.4245 17.4175
rtibia 32.8566
rfoot -29.4656 -32.9556
rtoes 18.6681
lfemur -47.2975 -20.5868 -11.1234
ltibia 26.0332
lfoot -11.9565 -0.12874
ltoes -20.7029
